<svg xmlns="http://www.w3.org/2000/svg" viewBox="0 0 1200 360" width="1200" height="360">
  <defs>
    <linearGradient id="bg" x1="0" y1="0" x2="1" y2="1">
      <stop offset="0%" stop-color="#f8fafc"/>
      <stop offset="100%" stop-color="#e0e7ff"/>
    </linearGradient>
    <linearGradient id="accent" x1="0" y1="0" x2="1" y2="0">
      <stop offset="0%" stop-color="#2563eb"/>
      <stop offset="100%" stop-color="#6366f1"/>
    </linearGradient>
    <radialGradient id="glow" cx="0.7" cy="0.3" r="0.7">
      <stop offset="0%" stop-color="#3b82f6" stop-opacity="0.20"/>
      <stop offset="100%" stop-color="#3b82f6" stop-opacity="0"/>
    </radialGradient>
  </defs>

  <rect width="1200" height="360" fill="url(#bg)"/>
  <rect width="1200" height="360" fill="url(#glow)"/>

  <!-- Decorative chart bars -->
  <g transform="translate(900,80)" opacity="0.85">
    <rect x="0"   y="120" width="22" height="80"  rx="3" fill="#3b82f6" opacity="0.45"/>
    <rect x="32"  y="90"  width="22" height="110" rx="3" fill="#3b82f6" opacity="0.55"/>
    <rect x="64"  y="60"  width="22" height="140" rx="3" fill="#3b82f6" opacity="0.65"/>
    <rect x="96"  y="30"  width="22" height="170" rx="3" fill="#3b82f6" opacity="0.75"/>
    <rect x="128" y="80"  width="22" height="120" rx="3" fill="#10b981" opacity="0.85"/>
    <rect x="160" y="50"  width="22" height="150" rx="3" fill="#3b82f6" opacity="0.45"/>
    <rect x="192" y="105" width="22" height="95"  rx="3" fill="#3b82f6" opacity="0.55"/>
    <text x="0" y="220" font-family="ui-monospace,Menlo,Consolas,monospace" font-size="11" fill="#475569">PIE(Pre)  Pre+Yt  +LCC-7D  Full   Raw   p10   p90</text>
  </g>

  <!-- Logo + wordmark -->
  <g transform="translate(80,90)">
    <rect x="0" y="0" width="64" height="64" rx="14" fill="url(#accent)"/>
    <g transform="translate(14,14)" stroke="white" stroke-width="3" fill="none" stroke-linecap="round" stroke-linejoin="round">
      <path d="M22 4 a18 18 0 1 0 10 10"/>
      <circle cx="18" cy="18" r="3" fill="white" stroke="none"/>
      <path d="M19 16 L29 6"/>
    </g>
  </g>

  <text x="170" y="135" font-family="-apple-system,BlinkMacSystemFont,Segoe UI,Roboto,Helvetica,Arial,sans-serif" font-size="56" font-weight="700" fill="#0f172a" letter-spacing="-1.5">PIEmaker</text>
  <text x="172" y="170" font-family="-apple-system,BlinkMacSystemFont,Segoe UI,Roboto,Helvetica,Arial,sans-serif" font-size="20" font-weight="500" fill="#475569">PIE Measurement Workbench · Campaign-level incrementality prediction</text>

  <!-- Methodology badge -->
  <g transform="translate(170,210)">
    <rect x="0" y="0" width="380" height="32" rx="16" fill="white" stroke="#cbd5e1" stroke-width="1"/>
    <circle cx="18" cy="16" r="4" fill="#10b981"/>
    <text x="32" y="21" font-family="-apple-system,Segoe UI,sans-serif" font-size="13" font-weight="500" fill="#334155">Built on Gordon, Moakler &amp; Zettelmeyer · NBER w35044 (2026)</text>
  </g>

  <!-- Footer line -->
  <g transform="translate(80,300)">
    <text font-family="-apple-system,Segoe UI,sans-serif" font-size="13" fill="#64748b">Built by</text>
    <text x="40" font-family="-apple-system,Segoe UI,sans-serif" font-size="13" font-weight="600" fill="#0f172a">Prima Hanura Akbar</text>
    <text x="190" font-family="-apple-system,Segoe UI,sans-serif" font-size="13" fill="#64748b">·</text>
    <text x="200" font-family="-apple-system,Segoe UI,sans-serif" font-size="13" fill="#64748b">Jakarta · 2026</text>
    <text x="320" font-family="-apple-system,Segoe UI,sans-serif" font-size="13" fill="#64748b">·</text>
    <text x="330" font-family="-apple-system,Segoe UI,sans-serif" font-size="13" fill="#64748b">221 backend tests · 18 frontend routes · build plan v3 complete</text>
  </g>
</svg>
